<svg width="36" height="36" viewBox="0 0 36 36" fill="none" xmlns="http://www.w3.org/2000/svg">
<g filter="url(#filter0_i_0_1110)">
<rect width="36" height="36" rx="6" fill="#1B314F"/>
<rect x="0.5" y="0.5" width="35" height="35" rx="5.5" stroke="url(#paint0_linear_0_1110)" style="mix-blend-mode:overlay"/>
<path d="M10.1883 20.0325L10.8644 14.3327L5 9.76479L10.3582 11.8013L11.6237 9.6228L16.2444 6.40576L26.4294 12.7019L26.9572 22.3084L22.4197 29.3835L18.8331 30.0001L20.6879 26.1908V22.5234L19.3393 19.6593L17.969 18.6411L15.8611 21.0792V23.6593L14.216 25.3875L12.1262 25.6715L11.2007 26.2597L9.68213 25.7161L9.04941 23.1603L10.1883 21.3632V20.0325Z" fill="white"/>
<path d="M19.5525 9.71594C18.4353 9.4563 17.2133 9.52527 17.2133 9.52527C17.2133 9.52527 16.812 11.6064 14.3245 12.1541C14.3425 12.1541 17.611 13.4076 19.5525 9.71594Z" fill="#94A6C3"/>
<path d="M20.5649 28.6005C21.9135 27.4159 22.9259 25.785 23.3923 23.9392C23.414 23.8702 23.602 23.7485 23.7285 23.6552C23.9382 23.5132 24.1515 23.3956 24.1913 23.2049C24.2745 22.6613 24.3179 22.0934 24.3179 21.5254C24.3179 21.3145 24.1262 21.0994 23.9382 20.8885C23.79 20.7465 23.6418 20.5802 23.6418 20.4625C23.4321 18.3084 22.5462 16.2962 21.1326 14.8317L20.9843 14.998C22.3546 16.4422 23.2404 18.4057 23.4321 20.4869C23.4537 20.6775 23.6201 20.8642 23.79 21.0548C23.9382 21.1968 24.1082 21.4118 24.1082 21.5051C24.1082 22.0487 24.0648 22.5923 23.9816 23.136C23.9599 23.2293 23.7719 23.3266 23.6237 23.4199C23.414 23.5376 23.2224 23.6552 23.1826 23.8459C22.6764 25.8581 21.5158 27.6106 19.9756 28.7465C20.2504 28.0852 21.1145 25.9311 21.5773 24.8398L21.4941 21.3388L18.815 18.4301L17.2965 18.6654L15.6297 21.6958C15.6297 21.6958 16.4107 22.8074 15.3115 24.1096C14.2377 25.3875 13.3917 25.6715 13.3917 25.6715L12.6107 25.1968C12.8421 24.8642 13.3085 24.3692 13.6665 24.0366C14.2775 23.4686 14.8885 23.4199 14.8885 22.8074C14.9138 21.5254 13.6882 21.8784 13.6882 21.8784L13.2434 22.353L13.0554 24.1055L12.1299 25.4078L12.025 25.3834L10.5065 25.0061C10.5065 25.0061 11.4357 24.4625 11.5839 23.8459C11.7321 23.2536 11.2874 21.2901 11.2657 21.1725C11.2874 21.1968 11.7104 21.5984 11.8985 22.2597C12.2347 21.2171 12.6794 20.2232 12.806 20.1299C12.9325 20.0366 14.639 19.0183 14.639 19.0183L14.0714 20.6978L14.4944 20.4382L15.5068 17.6471C15.5068 17.6471 16.4974 17.1035 17.235 17.1035C18.5619 17.0792 20.5252 15.2577 19.6393 11.9919C19.8924 12.1096 24.2781 14.5721 25.0374 19.3997C25.605 23.1116 23.7285 26.5883 20.5649 28.6005Z" fill="#94A6C3"/>
<path d="M15.5466 10.2351C16.031 9.59416 15.843 8.64893 15.843 8.64893L14.4294 10.9938C14.4077 10.9938 14.9319 11.0181 15.5466 10.2351Z" fill="#1B314F"/>
<path d="M10.7993 23.0386L10.9692 22.0934C10.9692 22.0934 10.2714 23.4646 10.21 23.6552C10.1449 23.8703 10.2534 24.2475 10.5245 24.2232C10.7993 24.1989 11.1355 23.7486 11.1355 23.42C11.1355 22.994 10.7993 23.0386 10.7993 23.0386Z" fill="#1B314F"/>
<path d="M14.7439 15.8458C15.1452 15.3265 14.9355 14.357 14.1943 14.1906C14.3859 13.6957 14.6571 12.7018 14.6571 12.7018C14.6571 12.7018 12.5058 16.4868 12.3178 16.5598C12.1262 16.6328 11.9382 15.8012 11.9382 15.8012C11.5369 17.5294 12.6143 17.7647 12.7409 17.2211C13.3302 17.0507 14.3425 16.3407 14.7439 15.8458Z" fill="#1B314F"/>
<path d="M12.9072 16.7667L14.0027 14.6613C14.0027 14.6613 14.6354 15.0183 14.3172 15.5862C13.9195 16.2475 12.9072 16.7667 12.9072 16.7667Z" fill="#FFD923"/>
<path d="M26.4691 26.5193C26.1509 26.994 25.793 27.4889 25.3736 27.9636C28.0925 22.0934 25.5001 16.7222 25.3953 16.5112C25.5869 16.7262 25.7749 16.9615 25.9449 17.1725C28.031 19.7729 28.2841 23.6796 26.4691 26.5193Z" fill="#D82122"/>
<path d="M29 18.9695C28.0491 16.1054 26.7005 13.6673 23.7285 11.4685C20.8614 9.33869 17.7809 9.50502 17.611 9.52936C17.5893 9.52936 17.5676 9.52936 17.5676 9.52936C17.6725 9.48068 17.7773 9.45634 17.8822 9.43606C18.5366 9.20076 19.379 9.01009 20.2251 8.89245C22.4631 8.53139 24.7192 9.38332 26.2594 11.2089C26.2811 11.2332 26.2811 11.2332 26.3028 11.2576C28.0527 13.3387 28.9602 15.9391 29 18.9695Z" fill="#D82122"/>
<path d="M23.0524 7.25345C19.9105 6.59219 17.8858 6.92079 16.4287 7.53743C16.3853 7.34676 16.2371 6.96948 16.1105 6.66116C15.6731 7.25345 15.2067 7.96339 14.9138 8.4137C14.1111 9.03033 13.7749 9.62262 13.7749 9.62262C14.2377 7.84574 15.5899 6.52323 17.235 6.19057C17.6978 6.09727 18.2039 6.04858 18.7535 6.04858C20.207 6.07292 21.6604 6.47455 23.0524 7.25345Z" fill="#D82122"/>
<path d="M11.432 11.7972C8.96622 11.7039 9.78695 8.48276 9.83034 8.29614C9.83034 8.32048 9.99665 10.8276 11.432 11.7972Z" fill="#D82122"/>
<path d="M13.8581 6C11.9599 7.27789 12.3395 10.3286 12.3395 10.3286C10.5245 7.23327 13.7098 6.07302 13.8581 6Z" fill="#D82122"/>
<path d="M10.7379 12.649C10.8644 12.7666 10.991 12.9816 10.8427 13.2899C10.7596 13.4563 10.633 13.4319 10.4414 13.3386C10.1883 13.1966 8.66979 12.2027 7.2995 11.1844C8.86142 11.8011 10.4414 12.4623 10.6945 12.6043C10.6945 12.6043 10.7162 12.6287 10.7379 12.649Z" fill="white"/>
</g>
<defs>
<filter id="filter0_i_0_1110" x="0" y="0" width="36" height="40" filterUnits="userSpaceOnUse" color-interpolation-filters="sRGB">
<feFlood flood-opacity="0" result="BackgroundImageFix"/>
<feBlend mode="normal" in="SourceGraphic" in2="BackgroundImageFix" result="shape"/>
<feColorMatrix in="SourceAlpha" type="matrix" values="0 0 0 0 0 0 0 0 0 0 0 0 0 0 0 0 0 0 127 0" result="hardAlpha"/>
<feOffset dy="4"/>
<feGaussianBlur stdDeviation="2"/>
<feComposite in2="hardAlpha" operator="arithmetic" k2="-1" k3="1"/>
<feColorMatrix type="matrix" values="0 0 0 0 1 0 0 0 0 1 0 0 0 0 1 0 0 0 0.25 0"/>
<feBlend mode="overlay" in2="shape" result="effect1_innerShadow_0_1110"/>
</filter>
<linearGradient id="paint0_linear_0_1110" x1="18" y1="0" x2="18" y2="7.41176" gradientUnits="userSpaceOnUse">
<stop stop-color="white" stop-opacity="0.5"/>
<stop offset="1" stop-color="white" stop-opacity="0"/>
</linearGradient>
</defs>
</svg>
